M48
;DRILL file {KiCad 4.0.5} date Sun Feb  5 17:43:37 2017
;FORMAT={-:-/ absolute / metric / decimal}
FMAT,2
METRIC,TZ
T1C0.300
T2C0.400
T3C0.762
T4C0.900
T5C1.000
T6C1.501
T7C1.600
T8C3.000
%
G90
G05
M71
T1
X144.75Y-108.5
X144.75Y-114.
X144.75Y-122.5
X146.5Y-83.5
X146.5Y-86.5
X147.25Y-85.
X151.25Y-94.25
X152.Y-88.25
X152.75Y-93.75
X154.39Y-95.776
X154.75Y-97.25
X154.75Y-93.75
X154.75Y-123.25
X155.Y-87.25
X156.Y-88.5
X156.25Y-100.5
X156.75Y-95.
X156.75Y-97.75
X157.25Y-106.
X158.25Y-119.
X158.75Y-122.25
X159.Y-95.25
X159.25Y-94.5
X160.5Y-122.5
X161.Y-124.
X161.Y-126.
X162.5Y-125.
X162.75Y-96.25
X163.Y-98.75
X163.75Y-86.
X164.Y-110.25
X164.75Y-100.25
X165.25Y-99.5
X165.75Y-102.75
X167.25Y-96.5
X167.5Y-105.25
X167.75Y-95.5
X168.Y-106.
X168.75Y-103.75
X169.Y-86.
X169.Y-98.5
X171.5Y-94.25
X174.25Y-101.25
X174.438Y-97.325
T2
X148.5Y-106.25
X149.Y-122.8
X150.5Y-96.75
X153.Y-107.
X155.5Y-101.75
X165.Y-122.75
X167.4Y-108.2
X167.5Y-121.25
X172.8Y-108.8
X172.8Y-112.4
T3
X158.Y-109.25
X158.Y-113.25
T4
X148.25Y-99.
X148.25Y-101.54
X179.22Y-113.25
X179.22Y-115.25
X179.22Y-117.25
X179.22Y-119.25
X181.Y-112.25
X181.Y-114.25
X181.Y-116.25
X181.Y-118.25
T6
X160.999Y-88.
X183.001Y-88.
T7
X180.11Y-107.12
X180.11Y-123.38
T8
X145.5Y-127.
X186.5Y-91.75
X186.5Y-127.
T5
X179.Y-101.25G85X179.Y-99.25
G05
X183.Y-95.55G85X181.Y-95.55
G05
X185.Y-101.25G85X185.Y-99.25
G05
T0
M30
