G04 #@! TF.FileFunction,Soldermask,Top*
%FSLAX46Y46*%
G04 Gerber Fmt 4.6, Leading zero omitted, Abs format (unit mm)*
G04 Created by KiCad (PCBNEW 4.0.5) date Thu Apr 20 17:43:32 2017*
%MOMM*%
%LPD*%
G01*
G04 APERTURE LIST*
%ADD10C,0.100000*%
%ADD11R,1.200000X0.750000*%
%ADD12R,2.700000X2.550000*%
%ADD13R,1.200000X0.900000*%
%ADD14R,1.800000X0.360000*%
%ADD15R,0.750000X1.200000*%
%ADD16R,2.600000X1.600000*%
%ADD17R,1.600000X2.600000*%
%ADD18R,3.500000X3.500000*%
%ADD19R,1.800000X1.800000*%
%ADD20C,1.800000*%
%ADD21O,4.000500X2.499360*%
%ADD22R,0.900000X1.200000*%
%ADD23R,1.550000X0.600000*%
%ADD24R,1.060000X0.650000*%
%ADD25R,1.450000X0.450000*%
%ADD26R,1.500000X0.250000*%
%ADD27R,0.600000X1.200000*%
%ADD28C,5.000000*%
%ADD29R,6.300000X6.100000*%
%ADD30R,1.500000X2.800000*%
%ADD31R,2.500000X2.000000*%
%ADD32R,2.000000X2.500000*%
%ADD33R,1.500000X1.600000*%
%ADD34R,1.250000X1.250000*%
%ADD35C,1.500000*%
%ADD36C,2.500000*%
%ADD37C,3.250000*%
%ADD38C,1.524000*%
%ADD39O,4.500000X2.000000*%
G04 APERTURE END LIST*
D10*
D11*
X153200000Y-96750000D03*
X151300000Y-96750000D03*
D12*
X151750000Y-99325000D03*
X151750000Y-105675000D03*
D13*
X144000000Y-91500000D03*
X141800000Y-91500000D03*
D11*
X160550000Y-98250000D03*
X162450000Y-98250000D03*
D14*
X169350000Y-103475000D03*
X174150000Y-103475000D03*
X174150000Y-102825000D03*
X174150000Y-102175000D03*
X174150000Y-101525000D03*
X169350000Y-101525000D03*
X169350000Y-102175000D03*
X169350000Y-102825000D03*
D15*
X154750000Y-120550000D03*
X154750000Y-122450000D03*
D11*
X162200000Y-109250000D03*
X160300000Y-109250000D03*
D15*
X165250000Y-100250000D03*
X165250000Y-102150000D03*
D16*
X157450000Y-125000000D03*
X161050000Y-125000000D03*
D11*
X156800000Y-121500000D03*
X158700000Y-121500000D03*
X166050000Y-116400000D03*
X167950000Y-116400000D03*
D15*
X160500000Y-118450000D03*
X160500000Y-116550000D03*
D11*
X167450000Y-103750000D03*
X165550000Y-103750000D03*
X162500000Y-121750000D03*
X160600000Y-121750000D03*
X164800000Y-96900000D03*
X166700000Y-96900000D03*
D15*
X164000000Y-109700000D03*
X164000000Y-107800000D03*
D11*
X168850000Y-94250000D03*
X170750000Y-94250000D03*
D17*
X155000000Y-85000000D03*
X155000000Y-88600000D03*
X142750000Y-85200000D03*
X142750000Y-88800000D03*
D11*
X169950000Y-105250000D03*
X168050000Y-105250000D03*
X154700000Y-94250000D03*
X152800000Y-94250000D03*
X156800000Y-94250000D03*
X158700000Y-94250000D03*
D18*
X179000000Y-100250000D03*
X185000000Y-100250000D03*
X182000000Y-95550000D03*
D19*
X148250000Y-99000000D03*
D20*
X148250000Y-101540000D03*
D13*
X160300000Y-100000000D03*
X162500000Y-100000000D03*
D21*
X183000740Y-88000000D03*
X160999260Y-88000000D03*
D13*
X154350000Y-118250000D03*
X152150000Y-118250000D03*
X162350000Y-107750000D03*
X160150000Y-107750000D03*
X162100000Y-118800000D03*
X164300000Y-118800000D03*
D22*
X164400000Y-120500000D03*
X164400000Y-122700000D03*
D13*
X169700000Y-116400000D03*
X171900000Y-116400000D03*
X160500000Y-120250000D03*
X162700000Y-120250000D03*
X167000000Y-93900000D03*
X164800000Y-93900000D03*
X164800000Y-95400000D03*
X167000000Y-95400000D03*
D22*
X155500000Y-108600000D03*
X155500000Y-106400000D03*
X166750000Y-100050000D03*
X166750000Y-102250000D03*
X176250000Y-105100000D03*
X176250000Y-102900000D03*
D13*
X174000000Y-105250000D03*
X171800000Y-105250000D03*
D22*
X155500000Y-104600000D03*
X155500000Y-102400000D03*
X165500000Y-105650000D03*
X165500000Y-107850000D03*
D13*
X166950000Y-98400000D03*
X164750000Y-98400000D03*
X172850000Y-99750000D03*
X170650000Y-99750000D03*
X144000000Y-93500000D03*
X141800000Y-93500000D03*
X160400000Y-94250000D03*
X162600000Y-94250000D03*
X160400000Y-96750000D03*
X162600000Y-96750000D03*
X156300000Y-100000000D03*
X158500000Y-100000000D03*
D23*
X158050000Y-102095000D03*
X158050000Y-103365000D03*
X158050000Y-104635000D03*
X158050000Y-105905000D03*
X163450000Y-105905000D03*
X163450000Y-104635000D03*
X163450000Y-103365000D03*
X163450000Y-102095000D03*
D24*
X158850000Y-119950000D03*
X158850000Y-119000000D03*
X158850000Y-118050000D03*
X156650000Y-118050000D03*
X156650000Y-119950000D03*
D25*
X169050000Y-96025000D03*
X169050000Y-96675000D03*
X169050000Y-97325000D03*
X169050000Y-97975000D03*
X173450000Y-97975000D03*
X173450000Y-97325000D03*
X173450000Y-96675000D03*
X173450000Y-96025000D03*
D26*
X158500000Y-95500000D03*
X158500000Y-96000000D03*
X158500000Y-96500000D03*
X158500000Y-97000000D03*
X155700000Y-95500000D03*
X155700000Y-96000000D03*
X155700000Y-96500000D03*
X155700000Y-97000000D03*
D27*
X157100000Y-96250000D03*
D28*
X186500000Y-127000000D03*
X145500000Y-127000000D03*
X186500000Y-91750000D03*
D29*
X148714000Y-91250000D03*
D30*
X151000000Y-85000000D03*
X146428000Y-85000000D03*
D31*
X163000000Y-116000000D03*
X163000000Y-112000000D03*
D32*
X154000000Y-91750000D03*
X158000000Y-91750000D03*
D13*
X172100000Y-118000000D03*
X169900000Y-118000000D03*
D33*
X152850000Y-121800000D03*
D34*
X149600000Y-120800000D03*
X149600000Y-122800000D03*
D35*
X181000000Y-112250000D03*
X179220000Y-113250000D03*
X181000000Y-114250000D03*
X179220000Y-115250000D03*
X181000000Y-116250000D03*
X179220000Y-117250000D03*
X181000000Y-118250000D03*
X179220000Y-119250000D03*
D36*
X180110000Y-107120000D03*
X180110000Y-123380000D03*
D37*
X183540000Y-108900000D03*
X183540000Y-121600000D03*
D15*
X170600000Y-110950000D03*
X170600000Y-109050000D03*
X169000000Y-110950000D03*
X169000000Y-109050000D03*
D11*
X166250000Y-118000000D03*
X168150000Y-118000000D03*
D32*
X166000000Y-114000000D03*
X170000000Y-114000000D03*
D22*
X172200000Y-114900000D03*
X172200000Y-112700000D03*
D13*
X168100000Y-119600000D03*
X170300000Y-119600000D03*
D22*
X172200000Y-111100000D03*
X172200000Y-108900000D03*
X167400000Y-111100000D03*
X167400000Y-108900000D03*
D15*
X148500000Y-105450000D03*
X148500000Y-103550000D03*
D13*
X170350000Y-121250000D03*
X168150000Y-121250000D03*
D15*
X158500000Y-84300000D03*
X158500000Y-86200000D03*
D13*
X149600000Y-95500000D03*
X147400000Y-95500000D03*
D38*
X158000000Y-113250000D03*
X158000000Y-109250000D03*
D39*
X144000000Y-105750000D03*
X144000000Y-116750000D03*
M02*
