M48
;DRILL file {KiCad 4.0.5} date Thu Apr 20 17:43:35 2017
;FORMAT={-:-/ absolute / inch / decimal}
FMAT,2
INCH,TZ
T1C0.012
T2C0.016
T3C0.030
T4C0.035
T5C0.039
T6C0.059
T7C0.063
T8C0.118
%
G90
G05
M72
T1
X5.6988Y-4.2717
X5.6988Y-4.4882
X5.6988Y-4.8228
X5.7677Y-3.2874
X5.7677Y-3.4055
X5.7972Y-3.3465
X5.9547Y-3.7106
X5.9843Y-3.4744
X6.0138Y-3.6909
X6.0783Y-3.7707
X6.0925Y-3.8287
X6.0925Y-3.6909
X6.0925Y-4.8524
X6.1024Y-3.435
X6.1417Y-3.4843
X6.1516Y-3.9567
X6.1713Y-3.7402
X6.1713Y-3.8484
X6.1909Y-4.1732
X6.2303Y-4.685
X6.25Y-4.813
X6.2598Y-3.75
X6.2697Y-3.7205
X6.3189Y-4.8228
X6.3386Y-4.8819
X6.3386Y-4.9606
X6.3976Y-4.9213
X6.4075Y-3.7894
X6.4173Y-3.8878
X6.4469Y-3.3858
X6.4567Y-4.3406
X6.4862Y-3.9469
X6.5059Y-3.9173
X6.5256Y-4.0453
X6.5846Y-3.7992
X6.5945Y-4.1437
X6.6043Y-3.7598
X6.6142Y-4.1732
X6.6437Y-4.0846
X6.6535Y-3.3858
X6.6535Y-3.878
X6.752Y-3.7106
X6.8602Y-3.9862
X6.8677Y-3.8317
T2
X5.8465Y-4.1831
X5.8661Y-4.8346
X5.9252Y-3.8091
X6.0236Y-4.2126
X6.122Y-4.0059
X6.4961Y-4.8327
X6.5906Y-4.2598
X6.5945Y-4.7736
X6.8031Y-4.2835
X6.8031Y-4.4252
T3
X6.2205Y-4.3012
X6.2205Y-4.4587
T4
X5.8366Y-3.8976
X5.8366Y-3.9976
X7.0559Y-4.4587
X7.0559Y-4.5374
X7.0559Y-4.6161
X7.0559Y-4.6949
X7.126Y-4.4193
X7.126Y-4.498
X7.126Y-4.5768
X7.126Y-4.6555
T6
X6.3386Y-3.4646
X7.2048Y-3.4646
T7
X7.0909Y-4.2173
X7.0909Y-4.8575
T8
X5.7283Y-5.
X7.3425Y-3.6122
X7.3425Y-5.
T5
X7.0472Y-3.9862G85X7.0472Y-3.9075
G05
X7.2047Y-3.7618G85X7.126Y-3.7618
G05
X7.2835Y-3.9862G85X7.2835Y-3.9075
G05
T0
M30
